<?xml version="1.0" encoding="UTF-8" standalone="no"?>
<!DOCTYPE svg PUBLIC "-//W3C//DTD SVG 1.1//EN" "http://www.w3.org/Graphics/SVG/1.1/DTD/svg11.dtd">
<svg version="1.1" xmlns="http://www.w3.org/2000/svg" xmlns:xlink="http://www.w3.org/1999/xlink" preserveAspectRatio="xMidYMid meet" viewBox="0 0 640 640" width="640" height="640"><defs><path d="M408.38 81.43C434.13 89.2 458.78 100.2 481.77 114.16C482.12 114.37 482.65 114.74 483.38 115.27C499.17 126.65 514.49 141.41 529.37 159.56C540.82 169.06 549.63 181.07 555.79 195.61C565.04 217.41 573.63 215.03 582.22 241.7C584.99 250.3 586.74 257.96 587.47 264.68C587.47 264.68 595.39 314.09 595.39 314.09C595.39 314.09 595.39 314.09 595.39 314.09C595.37 314.62 595.46 315.55 595.66 316.89C598.13 333.37 596.91 350.19 592.08 366.14C592.08 366.14 592.08 366.14 592.08 366.14C592.08 366.14 592.08 366.14 592.08 366.14C592.65 373.39 592.46 380.68 591.5 387.89C591.35 389.09 591.79 389.71 592.83 389.76C592.83 389.76 592.83 389.76 592.83 389.76C591.05 389.63 590.15 389.56 590.15 389.56C590.15 389.56 590.15 389.56 590.15 389.56C590.15 401.2 586.65 412.57 580.11 422.19C579.09 423.7 578.83 424.69 579.33 425.16C579.33 425.16 582.88 419.95 579.33 425.16C579.33 425.16 579.33 425.16 579.33 425.16C578.4 435.43 575.27 445.38 570.15 454.33C565.67 462.14 562.63 468.72 561.03 474.06C565.43 459.38 565.65 462.27 561.03 477.68C559.74 481.96 558 485.69 555.79 488.86C548.77 501.58 541.05 513.39 532.64 524.28C532.64 524.28 532.64 524.28 532.64 524.28C514.52 544.14 493.82 561.49 471.1 575.87C463.61 580.6 458.86 583.45 456.83 584.41C432.35 596.02 380.97 598.96 302.69 593.22C259.8 590.8 223.11 583.84 192.61 572.35C162.47 560.99 138.4 545.22 120.39 525.03C119.95 524.54 119.39 524.16 118.77 523.94C106.41 519.55 96.16 511.78 88 500.62C79.63 489.17 75.58 479.22 75.85 470.79C70.71 462.86 67.5 457.91 66.21 455.93C57.14 441.94 52.31 425.62 52.31 408.95C52.31 408.95 52.31 408.95 52.31 408.95C49.21 401.63 46.83 394.29 45.18 386.91C43 377.2 42.53 367.2 43.77 357.33C44.03 355.28 44.68 350.14 45.72 341.92C45.72 331.15 45.72 324.43 45.72 321.73C45.72 305.8 50.1 290.17 58.39 276.56C60.65 272.85 62.13 269.79 62.84 267.39C73.41 231.71 71.49 237.95 74.19 228.27C74.84 225.93 75.57 223.62 76.38 221.34C79.59 212.2 84.01 203.52 89.51 195.52C109.65 166.26 115.36 157.97 106.63 170.65C115.29 158.06 126.01 147.02 138.33 137.98C138.33 137.98 138.33 137.98 138.33 137.98C147.16 128.74 152.28 117.63 161.3 112.27C175.4 103.9 189.73 100.28 204.29 101.42C204.29 101.42 204.29 101.42 204.29 101.42C237.84 74.74 280.6 62.45 323.2 67.23C335.34 68.59 338.13 68.9 358.49 71.19C375.4 73.08 392.09 76.51 408.38 81.43C416.14 83.77 403.49 79.95 408.38 81.43Z" id="gfCVubvO4"></path><path d="M300.23 66.22C320.31 66.22 348.56 69.34 384.97 75.58C382.43 74.39 382.43 76.34 384.97 81.41C387.51 86.49 390.97 89.61 395.37 90.8C417.61 94.18 436.55 101.37 452.19 112.36C454.38 113.9 456.58 115.53 458.8 117.26C472.37 127.83 486.33 141.85 500.66 159.3L493.31 159.3C456.79 141.75 434.7 131.6 427.05 128.86C412.88 123.78 405.29 121.24 404.25 121.24C399.81 142.99 396.85 163.37 395.37 182.4C393.89 201.43 393.89 230.52 395.37 269.67C385.51 220.3 375.4 186.63 365.04 168.66C354.67 150.69 344.91 133.61 335.75 117.44C314.32 121.03 293.04 124.84 271.89 128.86C250.75 132.87 220.02 143.02 179.71 159.3C183.96 140.7 195.17 127.16 213.35 118.71C220.68 115.3 226.55 110.12 234.53 105.32C238.74 102.78 243.53 100.35 249.43 98.34C254.67 96.55 260.19 95.03 265.99 93.79C272.03 92.49 278.37 91.5 285 90.8L249.43 75.58C263.21 69.34 280.14 66.22 300.23 66.22Z" id="d5FbFQPDqo"></path><path d="M393.81 267.67C392.65 264.39 391.67 260.21 390.86 255.11C389.25 249.17 388.28 245.57 387.95 244.33C386.26 237.81 386.42 232.87 385.6 229.5C385.31 228.32 382.19 215.81 381.89 214.59C381.38 212.47 379.58 206.34 379.04 204.09C377.08 195.85 375.2 190.82 373.38 189C364.4 168.32 357.23 152.91 351.86 142.78C346.49 132.65 340.27 123.05 333.21 113.96" id="ip7g7vfoQ"></path><path d="M337.53 116.49L262.94 129.74L179.71 159.32" id="b1VJVJISa"></path><path d="M499.43 162.07C480.76 151.9 469.09 145.54 464.42 143C453.92 137.28 442.92 132.54 431.56 128.82C427.91 127.62 418.79 124.64 404.19 119.86" id="b2PYl5crP3"></path><path d="M99.26 300.04C99.26 305.99 95.28 310.82 90.38 310.82C85.48 310.82 81.5 305.99 81.5 300.04C81.5 294.09 85.48 289.25 90.38 289.25C95.28 289.25 99.26 294.09 99.26 300.04Z" id="a6tDWG6k9"></path><path d="M114.49 416.38C114.49 429.33 104.25 439.85 91.65 439.85C79.05 439.85 68.82 429.33 68.82 416.38C68.82 403.42 79.05 392.91 91.65 392.91C104.25 392.91 114.49 403.42 114.49 416.38Z" id="e1azZNpD5o"></path><path d="M217.24 477.68C217.24 488.53 207.01 497.34 194.41 497.34C181.8 497.34 171.57 488.53 171.57 477.68C171.57 466.83 181.8 458.02 194.41 458.02C207.01 458.02 217.24 466.83 217.24 477.68Z" id="fcRxdmXX0"></path><path d="M453.2 191.57C453.2 196.47 449.5 200.45 444.95 200.45C440.4 200.45 436.71 196.47 436.71 191.57C436.71 186.67 440.4 182.69 444.95 182.69C449.5 182.69 453.2 186.67 453.2 191.57Z" id="c1VSpgcssA"></path><path d="M339.03 170.01C339.03 177.01 333.91 182.69 327.61 182.69C321.31 182.69 316.19 177.01 316.19 170.01C316.19 163 321.31 157.32 327.61 157.32C333.91 157.32 339.03 163 339.03 170.01Z" id="c1j5LRDva4"></path><path d="M524.24 208.06C524.24 217.17 517.13 224.56 508.38 224.56C499.63 224.56 492.52 217.17 492.52 208.06C492.52 198.96 499.63 191.57 508.38 191.57C517.13 191.57 524.24 198.96 524.24 208.06Z" id="i6KvkAinM"></path><path d="M561.03 244.85C561.03 249.75 557.33 253.73 552.78 253.73C548.23 253.73 544.54 249.75 544.54 244.85C544.54 239.95 548.23 235.97 552.78 235.97C557.33 235.97 561.03 239.95 561.03 244.85Z" id="b3p901YmH"></path><path d="M165.23 141.46C165.23 146.71 161.53 150.98 156.98 150.98C152.43 150.98 148.74 146.71 148.74 141.46C148.74 136.21 152.43 131.95 156.98 131.95C161.53 131.95 165.23 136.21 165.23 141.46Z" id="b8292QcdrL"></path><path d="M316.19 197.28C316.19 200.43 314.49 202.99 312.39 202.99C310.28 202.99 308.58 200.43 308.58 197.28C308.58 194.13 310.28 191.57 312.39 191.57C314.49 191.57 316.19 194.13 316.19 197.28Z" id="bbKfsAvGq"></path><path d="M81.5 361.56C81.5 365.06 78.66 367.91 75.16 367.91C71.66 367.91 68.82 365.06 68.82 361.56C68.82 358.06 71.66 355.22 75.16 355.22C78.66 355.22 81.5 358.06 81.5 361.56Z" id="a3H6W1X7Y"></path><path d="M165.23 425.26C165.23 433.81 158.12 440.75 149.37 440.75C140.62 440.75 133.51 433.81 133.51 425.26C133.51 416.71 140.62 409.77 149.37 409.77C158.12 409.77 165.23 416.71 165.23 425.26Z" id="adjZyBOxz"></path><path d="M130.98 367.91C130.98 375.96 124.16 382.49 115.75 382.49C107.35 382.49 100.53 375.96 100.53 367.91C100.53 359.85 107.35 353.32 115.75 353.32C124.16 353.32 130.98 359.85 130.98 367.91Z" id="brmO38Z8A"></path></defs><g><g><g><g><g><filter id="shadow12960770" x="28.09" y="51.22" width="587.81" height="561.85" filterUnits="userSpaceOnUse" primitiveUnits="userSpaceOnUse"><feFlood></feFlood><feComposite in2="SourceAlpha" operator="in"></feComposite><feGaussianBlur stdDeviation="1.41"></feGaussianBlur><feOffset dx="4" dy="2" result="afterOffset"></feOffset><feFlood flood-color="#272323" flood-opacity="0.5"></feFlood><feComposite in2="afterOffset" operator="in"></feComposite><feMorphology operator="dilate" radius="2"></feMorphology><feComposite in2="SourceAlpha" operator="out"></feComposite></filter><path d="M408.38 81.43C434.13 89.2 458.78 100.2 481.77 114.16C482.12 114.37 482.65 114.74 483.38 115.27C499.17 126.65 514.49 141.41 529.37 159.56C540.82 169.06 549.63 181.07 555.79 195.61C565.04 217.41 573.63 215.03 582.22 241.7C584.99 250.3 586.74 257.96 587.47 264.68C587.47 264.68 595.39 314.09 595.39 314.09C595.39 314.09 595.39 314.09 595.39 314.09C595.37 314.62 595.46 315.55 595.66 316.89C598.13 333.37 596.91 350.19 592.08 366.14C592.08 366.14 592.08 366.14 592.08 366.14C592.08 366.14 592.08 366.14 592.08 366.14C592.65 373.39 592.46 380.68 591.5 387.89C591.35 389.09 591.79 389.71 592.83 389.76C592.83 389.76 592.83 389.76 592.83 389.76C591.05 389.63 590.15 389.56 590.15 389.56C590.15 389.56 590.15 389.56 590.15 389.56C590.15 401.2 586.65 412.57 580.11 422.19C579.09 423.7 578.83 424.69 579.33 425.16C579.33 425.16 582.88 419.95 579.33 425.16C579.33 425.16 579.33 425.16 579.33 425.16C578.4 435.43 575.27 445.38 570.15 454.33C565.67 462.14 562.63 468.72 561.03 474.06C565.43 459.38 565.65 462.27 561.03 477.68C559.74 481.96 558 485.69 555.79 488.86C548.77 501.58 541.05 513.39 532.64 524.28C532.64 524.28 532.64 524.28 532.64 524.28C514.52 544.14 493.82 561.49 471.1 575.87C463.61 580.6 458.86 583.45 456.83 584.41C432.35 596.02 380.97 598.96 302.69 593.22C259.8 590.8 223.11 583.84 192.61 572.35C162.47 560.99 138.4 545.22 120.39 525.03C119.95 524.54 119.39 524.16 118.77 523.94C106.41 519.55 96.16 511.78 88 500.62C79.63 489.17 75.58 479.22 75.85 470.79C70.71 462.86 67.5 457.91 66.21 455.93C57.14 441.94 52.31 425.62 52.31 408.95C52.31 408.95 52.31 408.95 52.31 408.95C49.21 401.63 46.83 394.29 45.18 386.91C43 377.2 42.53 367.2 43.77 357.33C44.03 355.28 44.68 350.14 45.72 341.92C45.72 331.15 45.72 324.43 45.72 321.73C45.72 305.8 50.1 290.17 58.39 276.56C60.65 272.85 62.13 269.79 62.84 267.39C73.41 231.71 71.49 237.95 74.19 228.27C74.84 225.93 75.57 223.62 76.38 221.34C79.59 212.2 84.01 203.52 89.51 195.52C109.65 166.26 115.36 157.97 106.63 170.65C115.29 158.06 126.01 147.02 138.33 137.98C138.33 137.98 138.33 137.98 138.33 137.98C147.16 128.74 152.28 117.63 161.3 112.27C175.4 103.9 189.73 100.28 204.29 101.42C204.29 101.42 204.29 101.42 204.29 101.42C237.84 74.74 280.6 62.45 323.2 67.23C335.34 68.59 338.13 68.9 358.49 71.19C375.4 73.08 392.09 76.51 408.38 81.43C416.14 83.77 403.49 79.95 408.38 81.43Z" id="c23DBYUTuB" fill="white" fill-opacity="1" filter="url(#shadow12960770)"></path></g><use xlink:href="#gfCVubvO4" opacity="1" fill="#c8b098" fill-opacity="1"></use><g><use xlink:href="#gfCVubvO4" opacity="1" fill-opacity="0" stroke="#000000" stroke-width="0" stroke-opacity="1"></use></g></g><g><g></g><use xlink:href="#d5FbFQPDqo" opacity="1" fill="#ab8878" fill-opacity="1"></use><g><use xlink:href="#d5FbFQPDqo" opacity="1" fill-opacity="0" stroke="#000000" stroke-width="0" stroke-opacity="1"></use></g></g><g><use xlink:href="#ip7g7vfoQ" opacity="1" fill="#e5ccae" fill-opacity="0.03"></use><g><use xlink:href="#ip7g7vfoQ" opacity="1" fill-opacity="0" stroke="#fbe6c9" stroke-width="5" stroke-opacity="1"></use></g></g><g><g><use xlink:href="#b1VJVJISa" opacity="1" fill-opacity="0" stroke="#fbe6c9" stroke-width="6" stroke-opacity="1"></use></g></g><g><g><use xlink:href="#b2PYl5crP3" opacity="1" fill-opacity="0" stroke="#fbe6c9" stroke-width="5" stroke-opacity="1"></use></g></g><g><use xlink:href="#a6tDWG6k9" opacity="1" fill="#af8c7c" fill-opacity="1"></use></g><g><use xlink:href="#e1azZNpD5o" opacity="1" fill="#af8c7c" fill-opacity="1"></use></g><g><use xlink:href="#fcRxdmXX0" opacity="1" fill="#af8c7c" fill-opacity="1"></use></g><g><use xlink:href="#c1VSpgcssA" opacity="1" fill="#fbe6c9" fill-opacity="1"></use></g><g><use xlink:href="#c1j5LRDva4" opacity="1" fill="#fbe6c9" fill-opacity="1"></use></g><g><use xlink:href="#i6KvkAinM" opacity="1" fill="#fbe6c9" fill-opacity="1"></use></g><g><use xlink:href="#b3p901YmH" opacity="1" fill="#fbe6c9" fill-opacity="1"></use></g><g><use xlink:href="#b8292QcdrL" opacity="1" fill="#fbe6c9" fill-opacity="1"></use></g><g><use xlink:href="#bbKfsAvGq" opacity="1" fill="#fbe6c9" fill-opacity="1"></use></g><g><use xlink:href="#a3H6W1X7Y" opacity="1" fill="#9c7c6e" fill-opacity="1"></use></g><g><use xlink:href="#adjZyBOxz" opacity="1" fill="#9c7c6e" fill-opacity="1"></use></g><g><use xlink:href="#brmO38Z8A" opacity="1" fill="#9c7c6e" fill-opacity="1"></use></g></g></g></g></svg>